<svg width="11" height="11" viewBox="0 0 11 11" fill="none" xmlns="http://www.w3.org/2000/svg">
<path d="M10.9337 0.839338C10.8431 0.621169 10.6697 0.447798 10.4515 0.357195C10.3442 0.311444 10.2289 0.287177 10.1123 0.285767H1.18368C0.946878 0.285767 0.719777 0.379835 0.552334 0.547279C0.38489 0.714722 0.290822 0.941823 0.290822 1.17862C0.290822 1.41542 0.38489 1.64253 0.552334 1.80997C0.719777 1.97741 0.946878 2.07148 1.18368 2.07148H7.96046L0.54975 9.47327C0.466064 9.55627 0.399641 9.65502 0.354312 9.76382C0.308982 9.87263 0.285645 9.98933 0.285645 10.1072C0.285645 10.2251 0.308982 10.3418 0.354312 10.4506C0.399641 10.5594 0.466064 10.6581 0.54975 10.7411C0.632753 10.8248 0.731504 10.8912 0.840307 10.9366C0.949109 10.9819 1.06581 11.0052 1.18368 11.0052C1.30155 11.0052 1.41825 10.9819 1.52705 10.9366C1.63585 10.8912 1.7346 10.8248 1.81761 10.7411L9.21939 3.33041V10.1072C9.21939 10.344 9.31346 10.5711 9.4809 10.7385C9.64835 10.906 9.87545 11.0001 10.1123 11.0001C10.3491 11.0001 10.5762 10.906 10.7436 10.7385C10.911 10.5711 11.0051 10.344 11.0051 10.1072V1.17862C11.0037 1.06195 10.9794 0.946679 10.9337 0.839338Z" fill="#FFBC57"/>
</svg>
